Coordinates
version=1
nRows=26
nColumns=36
inDegrees=yes
inDegrees=no

Units are S.I. units (second, meters, Newtons, ...)
If the header above contains a line with 'inDegrees', this indicates whether rotational values are in degrees (yes) or radians (no).

endheader
time	pelvis_tilt	pelvis_list	pelvis_rotation	pelvis_tx	pelvis_ty	pelvis_tz	hip_flexion_r	hip_adduction_r	hip_rotation_r	knee_angle_r	knee_angle_r_beta	ankle_angle_r	subtalar_angle_r	mtp_angle_r	hip_flexion_l	hip_adduction_l	hip_rotation_l	knee_angle_l	knee_angle_l_beta	ankle_angle_l	subtalar_angle_l	mtp_angle_l	lumbar_extension	lumbar_bending	lumbar_rotation	arm_flex_r	arm_add_r	arm_rot_r	elbow_flex_r	pro_sup_r	arm_flex_l	arm_add_l	arm_rot_l	elbow_flex_l	pro_sup_l
7.850000 0.394810 -0.123284 0.086995 -0.007923 0.010268 -0.006638 1.008768 0.106507 0.028877 0.592666 0.010344 0.161298 -0.078200 -0.130900 1.054659 0.121541 0.127718 0.644976 0.011257 -0.206459 -0.435303 -0.130900 -0.917483 0.062403 0.177634 1.610838 -0.287903 0.731215 1.093575 1.419951 0.272176 -0.689809 0.284622 1.415662 1.231492
7.866667 0.392649 -0.125088 0.075545 -0.007906 0.010302 -0.006687 0.997425 0.111876 0.031114 0.574688 0.010030 0.162418 -0.049473 -0.130900 1.051386 0.116770 0.126309 0.652643 0.011391 -0.160929 -0.425394 -0.130900 -0.902731 0.060967 0.161651 1.718392 -0.268422 0.796963 1.042624 1.408473 0.364206 -0.684097 0.309907 1.385757 1.238528
7.883333 0.386627 -0.128959 0.062709 -0.007876 0.010263 -0.006732 1.001499 0.116393 0.029408 0.570599 0.009959 0.194665 -0.001265 -0.130900 1.056817 0.108770 0.123537 0.653368 0.011403 -0.131949 -0.411777 -0.130900 -0.886286 0.060027 0.156092 1.822057 -0.243020 0.839114 0.998676 1.454424 0.463627 -0.666667 0.340980 1.339106 1.309747
7.900000 0.379870 -0.131566 0.051340 -0.007775 0.010265 -0.006707 1.025639 0.121205 0.023030 0.601604 0.010500 0.200829 0.010737 -0.130900 1.069281 0.103569 0.125106 0.666813 0.011638 -0.100490 -0.397700 -0.130900 -0.873543 0.061058 0.141806 1.920936 -0.212520 0.885027 0.971233 1.460281 0.534001 -0.652486 0.357293 1.304188 1.338403
7.916667 0.371763 -0.132384 0.048612 -0.007623 0.010191 -0.006670 1.052872 0.121153 0.014950 0.637305 0.011123 0.223525 0.027641 -0.130900 1.091765 0.104486 0.125881 0.687566 0.012000 -0.079114 -0.384416 -0.130900 -0.861330 0.061703 0.122611 2.019292 -0.184706 0.930123 0.941684 1.470526 0.613973 -0.641621 0.373482 1.271891 1.356179
7.933333 0.360234 -0.132645 0.042452 -0.007542 0.010258 -0.006669 1.082277 0.122754 0.007970 0.677220 0.011820 0.258324 0.030057 -0.130900 1.108781 0.105069 0.133427 0.699293 0.012205 -0.045215 -0.380707 -0.130900 -0.849114 0.056773 0.094437 2.096913 -0.166076 0.960625 0.939725 1.482443 0.696416 -0.635162 0.381811 1.226083 1.384495
7.950000 0.350076 -0.135067 0.039991 -0.007619 0.010103 -0.006713 1.109787 0.121306 0.001109 0.707052 0.012340 0.263243 0.062587 -0.130900 1.127447 0.108506 0.136253 0.719444 0.012557 -0.017669 -0.363657 -0.130900 -0.844588 0.056194 0.075917 2.187827 -0.153328 1.001093 0.933037 1.495204 0.795033 -0.618073 0.408226 1.188929 1.399912
7.966667 0.333571 -0.132959 0.028966 -0.007520 0.010112 -0.006729 1.141912 0.119607 -0.005844 0.742917 0.012966 0.284448 0.064781 -0.130900 1.149058 0.113220 0.145484 0.737610 0.012874 0.027763 -0.346042 -0.130900 -0.833135 0.048896 0.061179 2.268037 -0.139464 1.033761 0.927549 1.496868 0.866725 -0.598826 0.428507 1.153792 1.409241
7.983333 0.314788 -0.133417 0.019452 -0.007355 0.010048 -0.006747 1.175255 0.118438 -0.016875 0.780899 0.013629 0.326101 0.086977 -0.130900 1.175515 0.119758 0.157457 0.768205 0.013408 0.100554 -0.309528 -0.130900 -0.816897 0.050659 0.038461 2.339336 -0.114080 1.065475 0.915799 1.517943 0.913700 -0.587968 0.421939 1.130200 1.416299
8.000000 0.287458 -0.133705 0.005428 -0.007051 0.009943 -0.006604 1.219978 0.122819 -0.027719 0.815252 0.014229 0.375585 0.109822 -0.130900 1.216707 0.116245 0.168902 0.809910 0.014136 0.203246 -0.258597 -0.130900 -0.783266 0.047620 0.010883 2.389914 -0.085664 1.083886 0.905820 1.542195 0.936426 -0.591192 0.400635 1.119061 1.415527
8.016667 0.261942 -0.138213 -0.002467 -0.006954 0.009770 -0.006566 1.265345 0.123625 -0.043883 0.850770 0.014849 0.431897 0.145592 -0.130900 1.270190 0.116422 0.177521 0.878983 0.015341 0.308212 -0.206932 -0.130900 -0.749619 0.052556 -0.012932 2.443968 -0.059018 1.116018 0.890067 1.557049 0.962660 -0.596647 0.387946 1.105560 1.402919
8.033333 0.234001 -0.142309 -0.016134 -0.006891 0.009605 -0.006586 1.316352 0.127808 -0.056371 0.891014 0.015551 0.480459 0.204303 -0.130900 1.330469 0.112216 0.180995 0.944798 0.016490 0.397901 -0.167631 -0.130900 -0.715561 0.053886 -0.034530 2.495823 -0.031465 1.146004 0.865768 1.570817 0.999850 -0.604860 0.381501 1.087400 1.388227
8.050000 0.216112 -0.148797 -0.028157 -0.006839 0.009662 -0.006650 1.344568 0.128419 -0.071792 0.913582 0.015945 0.494178 0.232452 -0.130900 1.365213 0.110413 0.189179 0.988536 0.017253 0.450015 -0.179303 -0.130900 -0.697498 0.059388 -0.055401 2.544759 -0.004932 1.189872 0.849705 1.548719 1.040161 -0.606612 0.373067 1.051562 1.347410
8.066667 0.195883 -0.151874 -0.050251 -0.006820 0.009707 -0.006716 1.365680 0.135973 -0.082546 0.923478 0.016118 0.493030 0.255113 -0.130900 1.395577 0.102483 0.192552 1.023709 0.017867 0.487584 -0.194113 -0.130900 -0.684404 0.057358 -0.081247 2.575559 0.026352 1.194028 0.844771 1.559073 1.080262 -0.620451 0.359521 1.015432 1.348729
8.083333 0.178965 -0.153875 -0.082922 -0.006637 0.009768 -0.006793 1.377952 0.142462 -0.099125 0.932132 0.016269 0.491969 0.257024 -0.130900 1.413735 0.088790 0.202883 1.044176 0.018224 0.548386 -0.167447 -0.130900 -0.680375 0.053039 -0.103453 2.606149 0.051369 1.194398 0.867950 1.595699 1.110497 -0.637292 0.332920 0.983443 1.347083
8.100000 0.167135 -0.151862 -0.122337 -0.006668 0.009775 -0.006839 1.380836 0.155212 -0.107048 0.925507 0.016153 0.470038 0.259011 -0.130900 1.426408 0.066472 0.204771 1.063864 0.018568 0.559550 -0.126413 -0.130900 -0.683956 0.039424 -0.122600 2.630767 0.073783 1.192710 0.891046 1.598567 1.146387 -0.657738 0.320732 0.949794 1.331829
8.116667 0.165898 -0.148023 -0.156981 -0.006631 0.009828 -0.006647 1.370758 0.175432 -0.116783 0.912007 0.015918 0.483279 0.257136 -0.130900 1.431470 0.039576 0.210035 1.080997 0.018867 0.587002 -0.062828 -0.130900 -0.697392 0.015982 -0.141806 2.652995 0.084200 1.188475 0.920908 1.596490 1.201680 -0.682356 0.340829 0.905775 1.306392
8.133333 0.162431 -0.144775 -0.194991 -0.006722 0.009670 -0.006698 1.378249 0.195723 -0.125674 0.917136 0.016007 0.502409 0.222315 -0.130900 1.443339 0.012778 0.214541 1.095343 0.019117 0.608601 0.051320 -0.130900 -0.710455 -0.007285 -0.157749 2.675729 0.096265 1.176309 0.940566 1.600367 1.263453 -0.710471 0.371601 0.865735 1.278687
8.150000 0.156151 -0.144930 -0.225217 -0.006544 0.009596 -0.006620 1.394395 0.212934 -0.135163 0.926047 0.016163 0.549880 0.239473 -0.130900 1.468639 -0.009706 0.218516 1.133424 0.019782 0.658068 0.121028 -0.130900 -0.717825 -0.026003 -0.176705 2.692723 0.099528 1.153326 0.974751 1.612938 1.321071 -0.742491 0.413676 0.831580 1.243425
8.166667 0.135668 -0.144985 -0.256012 -0.006325 0.009562 -0.006681 1.419717 0.224303 -0.146515 0.942223 0.016445 0.599727 0.250610 -0.130900 1.502726 -0.025115 0.234098 1.177822 0.020557 0.712936 0.184577 -0.130900 -0.708113 -0.034008 -0.192495 2.702425 0.108900 1.135690 1.011796 1.624153 1.339537 -0.768542 0.412227 0.814934 1.216784
8.183333 0.123690 -0.150265 -0.273906 -0.006379 0.009599 -0.006589 1.430723 0.236974 -0.146790 0.947154 0.016531 0.620464 0.282661 -0.130900 1.517687 -0.040896 0.245606 1.198302 0.020914 0.735870 0.233008 -0.130900 -0.714649 -0.040423 -0.214266 2.706948 0.112413 1.110043 1.054900 1.639488 1.387928 -0.798370 0.455924 0.786467 1.143923
8.200000 0.112309 -0.153762 -0.294720 -0.006294 0.009383 -0.006690 1.452456 0.241395 -0.163943 0.965969 0.016859 0.660900 0.287611 -0.130900 1.543523 -0.046679 0.258326 1.235854 0.021570 0.767300 0.282280 -0.130900 -0.719267 -0.046291 -0.227974 2.707690 0.114444 1.086480 1.097965 1.645275 1.427380 -0.816974 0.488109 0.764395 1.100305
8.216667 0.099708 -0.163477 -0.316051 -0.006085 0.009398 -0.006629 1.474482 0.246950 -0.189298 0.996743 0.017396 0.685633 0.302155 -0.130900 1.569031 -0.056308 0.278371 1.280009 0.022340 0.779058 0.311839 -0.130900 -0.724408 -0.049828 -0.241388 2.694879 0.111629 1.047038 1.168865 1.664657 1.452557 -0.839464 0.513577 0.751773 1.051180
8.233333 0.088922 -0.177951 -0.322859 -0.005854 0.009492 -0.006646 1.484636 0.243179 -0.215475 1.026317 0.017913 0.701260 0.303789 -0.130900 1.573824 -0.054114 0.293769 1.286165 0.022448 0.798769 0.299218 -0.130900 -0.731506 -0.040331 -0.259391 2.671150 0.119649 1.014518 1.240404 1.668000 1.452270 -0.857805 0.509314 0.751594 1.030464
8.250000 0.076582 -0.198859 -0.313725 -0.005743 0.009614 -0.006609 1.485066 0.231227 -0.241203 1.036084 0.018083 0.719724 0.340686 -0.130900 1.580624 -0.049244 0.308062 1.284370 0.022416 0.788535 0.242175 -0.130900 -0.742425 -0.025082 -0.276917 2.632068 0.122051 0.978587 1.331092 1.679083 1.448905 -0.858242 0.498476 0.747193 1.003296
8.266667 0.065627 -0.213530 -0.301568 -0.005845 0.009441 -0.006515 1.499501 0.219308 -0.259975 1.044164 0.018224 0.719907 0.370258 -0.130900 1.598488 -0.048852 0.316949 1.290243 0.022519 0.769743 0.196692 -0.130900 -0.758636 -0.023837 -0.293481 2.597797 0.119645 0.957927 1.386560 1.679461 1.493834 -0.846892 0.536919 0.717669 0.969247
